<svg width="1080" height="1080" viewBox="0 0 1080 1080" fill="none" xmlns="http://www.w3.org/2000/svg">
<rect width="1080" height="1080" rx="540" fill="#ECDFCA"/>
<path d="M294.226 880V865.039C327.139 852.074 344.094 775.276 344.094 635.645V426.198C344.094 286.567 327.139 209.77 294.226 196.804V181.843H509.657C669.235 181.843 755.009 231.712 755.009 363.364C755.009 465.095 700.154 514.964 605.404 530.922V535.908C694.17 544.885 717.109 573.808 738.054 704.463C753.014 798.216 774.956 852.074 803.88 865.039V880H713.12C630.338 880 610.391 865.039 601.414 805.197L579.472 661.577C568.501 591.761 539.578 552.864 493.699 547.877V635.645C493.699 775.276 510.654 852.074 543.567 865.039V880H294.226ZM511.651 521.945C557.53 521.945 605.404 452.13 605.404 358.377C605.404 271.606 561.52 211.764 530.601 211.764C505.667 211.764 493.699 247.67 493.699 426.198V481.053C493.699 513.966 495.694 521.945 511.651 521.945Z" fill="#2D645D"/>
</svg>
