<svg width="1025" height="1062" viewBox="0 0 1025 1062" fill="none" xmlns="http://www.w3.org/2000/svg">
<path d="M17.6879 225.734C17.2239 226.317 16.9173 227.008 16.7973 227.743L0.314849 328.706C0.149379 329.72 0.348227 330.759 0.876122 331.64L69.6619 446.428C70.2436 447.399 71.1811 448.105 72.275 448.395L317.143 513.374C319.525 514.006 321.955 512.533 322.497 510.129L325.227 498.021C325.293 497.727 325.375 497.437 325.474 497.152L350.976 423.211C351.949 420.389 349.853 417.449 346.868 417.449H329.926C329.658 417.449 329.39 417.424 329.126 417.374L186.545 390.673C186.12 390.593 185.709 390.451 185.327 390.25L86.78 338.581C85.7849 338.059 85.0306 337.172 84.6753 336.106L47.6319 224.982C47.4358 224.394 47.3679 223.771 47.4325 223.154L50.0762 197.945C50.5292 193.625 45.0631 191.386 42.3557 194.783L17.6879 225.734Z" fill="white"/>
<path d="M677.018 417.449C674.009 417.449 671.911 420.432 672.928 423.264L699.435 497.053C699.549 497.37 699.643 497.693 699.717 498.021L702.399 509.923C702.941 512.327 705.371 513.799 707.753 513.167L951.842 448.395C952.936 448.105 953.874 447.399 954.455 446.428L1023.24 331.64C1023.77 330.759 1023.97 329.72 1023.8 328.706L1007.32 227.743C1007.2 227.008 1006.89 226.317 1006.43 225.734L981.762 194.783C979.054 191.386 973.588 193.625 974.041 197.945L976.685 223.154C976.749 223.771 976.681 224.394 976.485 224.982L939.442 336.106C939.087 337.172 938.332 338.059 937.337 338.581L838.791 390.25C838.408 390.451 837.997 390.593 837.573 390.673L694.991 417.374C694.727 417.424 694.459 417.449 694.191 417.449H677.018Z" fill="white"/>
<path fill-rule="evenodd" clip-rule="evenodd" d="M374.765 417.385C373.348 417.746 372.207 418.796 371.731 420.179L343.507 502.008L320.54 603.906C320.289 605.021 320.487 606.19 321.091 607.159L393.779 723.82C394.602 725.141 395.035 726.639 395.035 728.165V810.016C395.035 810.887 395.297 811.738 395.787 812.459L437.139 873.293C437.813 874.284 438.263 875.391 438.464 876.548L467.039 1041.7C467.243 1042.88 467.927 1043.92 468.928 1044.58L491.963 1059.78C494.546 1061.48 498.032 1060.02 498.623 1056.98L502.386 1037.62C502.588 1036.58 503.158 1035.65 503.992 1035.01L511.5 1029.19C511.781 1028.98 512.126 1028.86 512.481 1028.86C512.837 1028.86 513.182 1028.98 513.463 1029.19L520.971 1035.01C521.805 1035.65 522.375 1036.58 522.576 1037.62L526.34 1056.98C526.931 1060.02 530.417 1061.48 532.999 1059.78L556.035 1044.58C557.036 1043.92 557.72 1042.88 557.924 1041.7L586.499 876.548C586.7 875.391 587.15 874.284 587.824 873.293L629.176 812.459C629.666 811.738 629.927 810.887 629.927 810.016V728.165C629.927 726.639 630.361 725.141 631.184 723.82L703.871 607.159C704.476 606.19 704.674 605.021 704.422 603.906L681.467 502.059L652.038 420.136C651.551 418.781 650.425 417.755 649.031 417.396L513.548 382.554C512.841 382.372 512.1 382.371 511.392 382.552L374.765 417.385ZM476.449 864.59C474.336 861.12 469.042 862.188 468.44 866.206L465.235 887.581C465.183 887.927 465.173 888.278 465.205 888.626L473.935 982.966C473.981 983.461 474.112 983.944 474.321 984.395L484.529 1006.39C486.215 1010.03 491.504 1009.64 492.638 1005.8L497.477 989.406C497.608 988.96 497.668 988.496 497.652 988.031L495.411 920.66C495.399 920.322 495.349 919.986 495.259 919.659L483.437 876.392C483.33 875.999 483.168 875.624 482.956 875.277L476.449 864.59ZM546.65 864.59C548.763 861.12 554.058 862.188 554.66 866.206L557.865 887.581C557.917 887.927 557.927 888.278 557.894 888.626L549.164 982.966C549.118 983.461 548.988 983.944 548.779 984.395L538.571 1006.39C536.884 1010.03 531.595 1009.64 530.461 1005.8L525.623 989.406C525.491 988.96 525.432 988.496 525.447 988.031L527.689 920.66C527.7 920.322 527.751 919.986 527.84 919.659L539.663 876.392C539.77 875.999 539.932 875.624 540.143 875.277L546.65 864.59ZM373.345 499.427C373.345 499.427 367.445 506.334 366.412 512.479C365.251 519.392 369.724 525.672 379.709 527.35C385.854 528.383 391.489 527.75 391.489 527.75L398.557 509.193C398.557 509.193 391.902 506.495 392.289 504.191C392.677 501.886 400.255 484.994 400.255 484.994L389.507 478.449L373.345 499.427ZM431.898 505.694C431.898 505.694 443.005 500.988 459.193 499.482C454.092 505.094 450.834 514.238 446.367 526.776C445.889 528.118 445.397 529.499 444.887 530.919L438.487 548.99C436.416 554.637 434.722 557.461 430.016 557.461C422.486 557.461 414.956 553.696 414.956 553.696L418.721 513.224C419.098 508.518 422.486 505.694 426.251 505.694H431.898ZM480.841 582.874L416.462 630.311C416.462 630.311 412.133 626.734 412.133 619.581C412.133 612.051 415.898 608.287 418.721 605.463L456.37 565.932C456.37 565.932 468.606 554.637 468.606 541.46C468.606 535.248 465.405 530.542 460.888 528.472C460.888 515.295 471.429 503.812 485.736 503.812C501.172 503.812 515.666 516.801 515.666 534.872C515.666 560.285 480.841 582.874 480.841 582.874ZM490.254 602.639L497.783 580.991C512.278 580.991 516.796 584.003 516.796 590.215C516.796 590.592 516.749 590.921 516.702 591.251C516.655 591.58 516.608 591.909 516.608 592.286L512.843 624.287C511.902 631.817 508.137 635.582 501.548 635.582C499.36 635.582 497.455 635.299 495.121 634.953C491.43 634.406 486.666 633.699 478.018 633.699H427.192C482.724 617.699 487.053 611.675 490.254 602.639ZM532.836 569.697C532.836 569.697 543.19 545.225 589.309 545.225C615.663 545.225 634.487 564.05 634.487 588.521C634.487 613.934 611.898 636.523 578.956 636.523C545.072 636.523 527.189 618.64 527.189 605.463C527.189 597.933 532.836 592.286 544.131 592.286C544.131 592.286 550.719 607.345 569.544 607.345C580.838 607.345 588.368 599.816 588.368 588.521C588.368 577.227 580.838 569.697 571.426 569.697C561.073 569.697 555.425 577.227 555.425 577.227C535.66 577.227 532.46 573.65 532.836 569.697ZM534.53 549.931L538.483 501.929H626.016V520.754C626.016 528.283 622.252 532.048 614.722 532.048L564.838 529.225C564.838 529.225 560.131 545.225 534.53 549.931Z" fill="white"/>
<path fill-rule="evenodd" clip-rule="evenodd" d="M888.173 340.971C888.517 342.825 887.599 344.683 885.929 345.559L832.151 373.756C831.768 373.956 831.357 374.099 830.933 374.178L693.119 399.987C692.855 400.037 692.587 400.062 692.319 400.062H652.316C651.951 400.062 651.587 400.016 651.234 399.925L514.988 364.886C513.353 364.465 511.624 364.464 509.988 364.881L372.525 399.927C372.174 400.016 371.814 400.062 371.452 400.062H331.81C331.541 400.062 331.274 400.037 331.01 399.987L193.196 374.178C192.771 374.099 192.361 373.956 191.978 373.756L138.198 345.558C136.528 344.682 135.61 342.824 135.954 340.97C163.253 193.768 321.246 80.8535 512.063 80.8535C702.882 80.8535 860.874 193.769 888.173 340.971ZM314.37 242.793C317.273 275.881 338.171 296.005 350.748 296.005C350.748 310.518 335.268 318.451 319.595 318.451C290.183 318.451 271.413 288.072 271.413 256.338C271.413 219.186 296.375 190.161 330.431 184.743C318.24 194.418 313.79 215.703 313.79 233.118C313.79 236.601 313.983 239.89 314.37 242.793ZM367.776 266.013C364.874 232.924 343.976 212.8 331.398 212.8C331.398 198.288 346.878 190.548 362.552 190.548C391.964 190.548 410.733 220.734 410.733 252.468C410.733 289.62 385.772 318.645 351.716 324.063C363.906 314.388 368.163 293.103 368.163 275.688C368.163 272.205 368.163 269.109 367.776 266.013ZM553.009 287.298C553.009 295.244 556.399 298.558 559.515 301.604C562.166 304.195 564.619 306.593 564.619 311.485C564.619 317.29 561.717 322.128 561.717 322.128C561.717 322.128 553.009 321.16 543.334 321.16C536.943 321.16 530.258 321.454 524.249 321.717C519.342 321.932 514.886 322.128 511.406 322.128C505.601 322.128 500.764 317.29 500.764 311.485C500.764 307.429 502.169 305.621 503.909 303.384C506.734 299.752 510.439 294.986 510.439 277.623V210.865C510.439 210.865 500.764 207.963 500.764 197.32C500.764 191.515 503.666 186.678 503.666 186.678H553.977C559.782 186.678 564.619 191.515 564.619 197.32C564.619 201.466 562.857 203.557 560.705 206.109C557.335 210.107 553.009 215.238 553.009 231.183V287.298ZM493.024 267.948C481.414 267.948 475.609 269.883 475.609 269.883V287.298C475.609 295.287 478.541 298.878 481.177 302.107C483.329 304.742 485.284 307.137 485.284 311.485C485.284 316.129 482.381 322.128 482.381 322.128C482.381 322.128 473.674 321.16 463.999 321.16C458.094 321.16 452.739 321.411 447.477 321.657C442.393 321.894 437.396 322.128 432.071 322.128C426.266 322.128 421.429 317.29 421.429 311.485C421.429 307.33 423.199 305.21 425.357 302.625C428.726 298.592 433.039 293.427 433.039 277.623V210.865C433.039 210.865 421.429 209.898 421.429 197.32C421.429 191.515 424.331 186.678 424.331 186.678H474.641C480.446 186.678 485.284 191.515 485.284 197.514C485.284 201.465 483.9 203.203 482.179 205.364C479.35 208.917 475.609 213.615 475.609 231.183V236.988L479.479 237.955C493.991 244.341 500.764 255.951 500.764 268.335L500.453 268.293L500.453 268.293C499.547 268.172 498.959 268.093 498.368 268.042C497.273 267.948 496.17 267.948 493.024 267.948ZM743.615 186.678H700.077V277.623C700.077 294.986 696.372 299.752 693.547 303.384C691.807 305.621 690.402 307.429 690.402 311.485C690.402 317.29 695.239 322.128 701.044 322.128C704.524 322.128 708.98 321.932 713.887 321.717C719.896 321.454 726.581 321.16 732.972 321.16C742.647 321.16 751.355 322.128 751.355 322.128C751.355 322.128 754.257 317.29 754.257 311.485C754.257 306.576 751.786 304.137 749.125 301.51C746.016 298.441 742.647 295.116 742.647 287.298V231.183C742.647 215.238 746.973 210.107 750.343 206.109C752.495 203.557 754.257 201.466 754.257 197.32C754.257 191.515 749.42 186.678 743.615 186.678ZM621.098 301.565C613.836 295.466 600.231 284.039 585.912 221.508V277.623C585.912 293.568 581.586 298.699 578.215 302.697C576.064 305.249 574.302 307.339 574.302 311.485C574.302 317.29 579.139 322.128 584.944 322.128C588.7 322.128 592.229 321.9 595.861 321.665C599.713 321.417 603.682 321.16 608.164 321.16C614.937 321.16 623.644 322.128 623.644 322.128C623.644 322.128 626.547 316.323 626.547 311.485C626.547 306.142 624.532 304.45 621.098 301.565ZM655.572 322.128H660.409L681.694 252.468C673.954 262.143 664.86 260.014 661.377 252.468L635.254 195.385C632.545 189.58 629.449 186.678 622.677 186.678H577.204C577.204 186.678 574.302 191.515 574.302 197.32C574.302 209.898 585.912 210.865 585.912 210.865L596.554 211.833L643.962 314.388C646.671 320.193 648.799 322.128 655.572 322.128Z" fill="white"/>
<path d="M884.179 513.969C887.666 515.396 887.81 520.281 884.412 521.91L782.239 570.901C777.866 572.998 773.864 567.441 777.239 563.958L840.246 498.939C841.482 497.664 843.369 497.269 845.013 497.942L884.179 513.969Z" fill="white"/>
<path d="M962.887 463.509L894.726 481.973C890.724 483.057 890.369 488.597 894.201 490.183L976.723 524.333C980.06 525.714 983.528 522.657 982.577 519.173L968.216 466.559C967.585 464.247 965.201 462.882 962.887 463.509Z" fill="white"/>
<path d="M787.47 510.423L711.301 531.059C709.042 531.671 707.673 533.961 708.205 536.241L719.026 582.622C719.806 585.966 723.973 587.127 726.369 584.669L791.718 517.651C794.806 514.484 791.74 509.266 787.47 510.423Z" fill="white"/>
<path d="M657.069 717.693L702.548 644.481C704.597 641.183 709.612 642.022 710.476 645.806L723.65 703.475C724.171 705.758 722.79 708.044 720.526 708.644L661.874 724.187C658.071 725.195 654.993 721.035 657.069 717.693Z" fill="white"/>
<path d="M140.957 513.969C137.471 515.396 137.327 520.281 140.724 521.91L242.898 570.901C247.271 572.998 251.272 567.441 247.897 563.958L184.891 498.939C183.655 497.664 181.768 497.269 180.124 497.942L140.957 513.969Z" fill="white"/>
<path d="M62.2628 463.509L130.423 481.973C134.426 483.057 134.781 488.597 130.949 490.183L48.427 524.333C45.0897 525.714 41.6219 522.657 42.573 519.173L56.9342 466.559C57.5654 464.247 59.9494 462.882 62.2628 463.509Z" fill="white"/>
<path d="M237.682 510.428L313.852 531.064C316.111 531.676 317.479 533.966 316.947 536.245L306.126 582.627C305.346 585.971 301.18 587.132 298.783 584.674L233.435 517.656C230.346 514.489 233.413 509.271 237.682 510.428Z" fill="white"/>
<path d="M368.081 717.693L322.602 644.481C320.553 641.183 315.538 642.022 314.674 645.806L301.5 703.475C300.979 705.758 302.36 708.044 304.624 708.644L363.276 724.187C367.079 725.195 370.157 721.035 368.081 717.693Z" fill="white"/>
<path d="M168.259 164.692C179.177 173.848 191.621 173.613 195.436 169.798C199.838 174.2 197.549 181.303 192.795 186.057C183.873 194.979 168.964 191.457 159.337 181.831C148.068 170.561 146.835 154.185 155.522 142.211C154.759 148.843 159.866 156.65 165.148 161.933C166.205 162.989 167.262 163.928 168.259 164.692ZM191.503 155.535C180.586 146.378 168.142 146.613 164.327 150.428C159.924 146.026 162.272 138.982 167.027 134.228C175.949 125.306 190.799 128.769 200.425 138.395C211.695 149.665 212.928 166.041 204.241 178.016C205.004 171.383 199.838 163.635 194.556 158.352C193.499 157.296 192.56 156.357 191.503 155.535Z" fill="white"/>
<path d="M225.332 97.1096C225.332 97.1096 221.096 99.7621 217.863 95.4427C216.37 93.4491 216.123 91.0415 216.123 91.0415L230.079 80.5949C232.072 79.1025 234.977 79.5202 236.47 81.5138C239.206 85.1687 234.472 87.1567 241.188 96.1279C246.411 103.105 246.909 103.77 246.909 103.77C246.909 103.77 236.126 94.6291 225.332 97.1096ZM196.093 118.998C196.093 118.998 191.857 121.65 188.623 117.331C187.131 115.337 186.884 112.93 186.884 112.93L195.191 106.712C197.517 104.97 199.343 104.64 202.829 105.141L253.127 112.077L264.568 127.361L259.917 130.843C257.591 132.584 255.764 132.915 252.278 132.413L200.819 125.311L196.093 118.998ZM213.255 141.924L207.783 134.614C224.706 146.832 231.687 137.458 235.916 143.107C237.159 144.768 237.655 147.508 237.655 147.508C237.655 147.508 234.416 149.414 232.09 151.155C229.1 153.394 227.022 155.467 224.364 157.457C222.371 158.95 219.466 158.532 217.973 156.538C215.237 152.883 219.971 150.895 213.255 141.924Z" fill="white"/>
<path d="M363.648 47.2859C362.568 42.7273 361.525 39.2182 360.51 36.496C357.754 29.1072 355.24 27.83 351.927 27.7367L357.371 25.7061C362.816 23.6754 363.77 22.4335 366.026 21.5923C369.137 20.4319 371.117 21.4653 371.365 24.0306L373.469 42.7369C373.66 44.4375 373.173 45.5054 371.228 46.2306C368.506 47.2459 363.648 47.2859 363.648 47.2859ZM349.594 28.607L364.678 69.0507C366.854 74.8839 371.376 72.7545 372.971 77.0322C373.841 79.3655 373.4 81.745 373.4 81.745C373.4 81.745 369.755 82.6616 365.866 84.112C361.2 85.8526 356.289 88.127 352.4 89.5775C350.067 90.4478 347.398 89.2286 346.527 86.8953C344.932 82.6176 350.033 82.0437 346.117 71.5439L332.483 34.989L349.594 28.607ZM329.527 36.0914C329.527 36.0914 328.199 40.1307 331.081 58.5469C331.272 60.2475 330.785 61.3154 328.84 62.0406C326.118 63.0559 321.26 63.0959 321.26 63.0959L315.755 44.7722C314.828 41.5741 315.86 40.3032 318.582 39.2879C321.304 38.2725 323.305 38.4121 329.527 36.0914Z" fill="white"/>
<path d="M439.659 49.5799C441 55.7445 445.761 54.1991 446.731 58.6603C447.261 61.0937 446.485 63.3862 446.485 63.3862C446.485 63.3862 442.747 63.7747 438.691 64.6569C433.824 65.7156 428.64 67.2681 425.396 67.9739C422.962 68.5032 420.493 66.9165 419.964 64.4831C418.994 60.0219 423.49 61.1675 420.932 49.4061L414.844 21.422C414.844 21.422 410.524 21.0876 409.554 16.6264C409.024 14.193 409.8 11.9005 409.8 11.9005L430.889 7.3128C433.323 6.78346 435.792 8.37017 436.321 10.8036C437.291 15.2648 432.16 15.1068 434.542 26.0571L439.659 49.5799ZM412.749 46.9385C407.883 47.9972 405.626 49.3376 405.626 49.3376L407.214 56.6378C408.537 62.7213 412.593 61.8391 413.475 65.8947C413.898 67.8415 413.229 70.6206 413.229 70.6206C413.229 70.6206 409.49 71.0091 405.435 71.8913C400.568 72.95 396.682 74.2202 392.139 75.2083C389.706 75.7376 387.237 74.1509 386.708 71.7175C385.737 67.2563 390.851 67.3332 388.487 56.464L382.399 28.48C382.399 28.48 377.444 29.1331 376.297 23.8608C375.768 21.4274 376.543 19.1349 376.543 19.1349C376.543 19.1349 397.146 14.6531 397.633 14.5472C400.066 14.0179 402.535 15.6046 403.082 18.1191C404.035 22.4992 399.521 21.2725 402.097 33.115L402.626 35.5484L404.337 35.6011C411.002 36.9544 414.9 41.2037 416.029 46.3949C414.777 46.4974 414.858 46.4797 412.749 46.9385Z" fill="white"/>
<path d="M468.098 3.61537L472.243 61.5744L453.613 62.9069C451.129 63.0846 448.911 61.1626 448.734 58.6787C448.408 54.1248 453.465 55.0114 452.665 43.8336L450.622 15.2681C450.622 15.2681 445.625 15.2094 445.24 9.82748C445.062 7.34352 446.156 5.18472 446.156 5.18472L468.098 3.61537ZM482.234 20.9132L482.21 15.9215C482.186 6.26953 471.824 3.34888 471.824 3.34888L482.587 2.57901C488.797 2.13485 489.152 1.27726 491.636 1.09959C494.948 0.862711 496.143 2.4417 495.658 4.97303L493.648 17.6001C493.14 20.9653 491.875 21.8881 489.805 22.0361C487.321 22.2138 482.234 20.9132 482.234 20.9132ZM471.353 25.8526L479.632 25.2604C482.53 25.0531 483.861 26.2062 484.068 29.1042C484.424 34.0721 482.236 38.3897 482.236 38.3897L479.308 38.183L471.353 25.8526ZM487.53 48.4138L490.989 38.5959C496.371 38.2109 500.57 38.7428 500.038 42.942L498.443 55.5394C497.911 59.7386 496.314 60.685 493.83 60.8627C491.429 61.0344 490.045 60.3012 482.593 60.8342L475.969 61.3079C475.969 61.3079 484.698 56.5225 487.53 48.4138Z" fill="white"/>
<path d="M617.605 8.50366C624.094 9.91526 628.679 10.3179 630.707 10.7591L621.496 53.1001C620.173 59.1836 624.229 60.0659 623.346 64.1215C622.817 66.5549 621.159 68.3181 621.159 68.3181C621.159 68.3181 617.597 67.1185 613.542 66.2362C608.675 65.1776 604.531 64.7009 600.07 63.7304C597.636 63.2011 596.05 60.7321 596.579 58.2987C597.55 53.8375 602.152 56.1129 604.534 45.1626L610.621 17.1786C610.621 17.1786 605.843 15.7143 606.99 10.4419C607.501 8.08966 609.177 6.24539 609.177 6.24539C609.177 6.24539 613.955 7.70964 617.605 8.50366ZM641.578 74.0342C629.817 71.4757 626.258 50.7378 628.463 40.5987C628.993 38.1653 630.016 37.3684 630.016 37.3684C633.571 37.0374 636.047 35.0274 636.841 31.3774C637.988 26.105 634.391 23.1138 631.622 22.1718C633.933 15.4536 640.546 14.3436 645.413 15.4023C652.713 16.9903 657.791 24.891 655.938 33.4079C654.35 40.708 647.807 47.3551 638.479 45.3259C636.857 44.973 636.134 44.391 635.957 45.2022C635.781 46.0133 636.592 46.1897 638.214 46.5426C643.486 47.6895 645.154 50.1761 646.254 52.5392L650.344 61.0746C650.908 62.3866 651.843 63.9491 655.898 64.8313C654.399 71.7259 648.473 75.534 641.578 74.0342Z" fill="white"/>
<path d="M687.957 75.2476C691.438 65.9145 691.697 47.4058 691.697 47.4058C692.188 39.4381 682.444 34.2089 684.329 29.1534C684.909 27.5979 686.54 26.7886 688.601 27.2027L704.249 30.3812C704.666 30.4485 705.055 30.5935 705.444 30.7386C708.244 31.7829 709.463 34.4525 709.27 40.6709L707.883 80.0216C707.662 87.0269 711.929 88.1755 710.479 92.0644C709.608 94.3976 707.716 95.9069 707.716 95.9069C707.716 95.9069 704.75 94.3577 700.473 92.7622C696.195 91.1667 689.05 88.9447 685.939 87.7844C683.606 86.9141 682.387 84.2444 683.257 81.9111C684.417 78.8001 686.072 80.3031 687.957 75.2476ZM680.894 37.1749C685.196 47.0189 683.183 56.4564 682.184 68.3986C681.443 67.0592 680.548 66.371 679.692 66.0519C676.348 64.8045 674.352 67.781 673.568 69.8809C672.408 72.992 676.007 75.2202 674.701 78.7201C673.831 81.0534 671.939 82.5627 671.939 82.5627C671.939 82.5627 668.584 80.8684 664.696 79.4179C660.807 77.9675 657.551 77.196 652.495 75.3104C650.162 74.4401 648.943 71.7705 649.813 69.4372C652.279 62.8262 662.594 71.9892 680.894 37.1749Z" fill="white"/>
<path d="M764.597 72.8751C764.597 72.8751 760.425 70.1238 763.011 65.3882C764.204 63.2025 766.292 61.9778 766.292 61.9778L781.592 70.3322C783.777 71.5256 784.604 74.3416 783.411 76.5273C781.223 80.5344 777.448 77.0546 772.077 86.8902C767.9 94.5401 767.502 95.2687 767.502 95.2687C767.502 95.2687 771.338 81.6628 764.597 72.8751ZM732.541 55.3707C732.541 55.3707 728.368 52.6195 730.954 47.8838C732.148 45.6982 734.235 44.4735 734.235 44.4735L743.342 49.4463C745.892 50.8387 746.951 52.3629 747.944 55.7421L762.529 104.376L753.379 121.133L748.28 118.348C745.73 116.955 744.67 115.431 743.678 112.052L728.761 62.2921L732.541 55.3707ZM718.816 80.5061L723.192 72.492C719.108 92.9611 730.535 95.4175 727.154 101.61C726.159 103.432 723.873 105.021 723.873 105.021C723.873 105.021 720.793 102.866 718.243 101.474C714.965 99.6836 712.216 98.6555 709.301 97.0642C707.116 95.8707 706.289 93.0547 707.482 90.869C709.67 86.8619 713.445 90.3417 718.816 80.5061Z" fill="white"/>
<path d="M829.715 106.974L833.037 109.462C834.499 110.556 834.998 111.552 834.053 112.814C833.705 113.279 833.174 113.712 832.544 114.277L820.931 124.248C819.604 125.329 817.878 126.111 816.283 124.917C813.957 123.176 811.63 119.359 811.63 119.359L818.18 111.301C818.18 111.301 816.02 108.647 812.032 105.662C809.374 103.672 807.315 102.545 804.542 102.232C804.856 101.535 805.238 100.887 805.685 100.289C808.869 96.0358 815.342 93.6227 823.25 99.5425C826.639 102.08 829.715 106.974 829.715 106.974ZM773.261 99.9696C782.216 88.008 797.685 84.2419 811.487 90.7374C806.789 90.6421 798.576 95.7961 792.556 103.837C787.035 111.213 779.66 125.498 794.545 136.641L799.022 130.66C799.022 130.66 795.616 127.592 798.601 123.605C800.093 121.611 802.334 120.696 802.334 120.696C802.334 120.696 805.408 123.515 808.066 125.505C812.718 128.987 816.289 131.142 818.947 133.132C820.941 134.625 821.275 136.949 819.782 138.942C817.295 142.265 814.719 138.781 809.247 146.091L803.277 154.065C803.277 154.065 794.144 152.413 781.186 142.713C765.902 131.271 763.312 113.26 773.261 99.9696Z" fill="white"/>
<path d="M863.522 135.565L822.434 176.652L809.227 163.446C807.467 161.685 807.467 158.75 809.227 156.989C812.456 153.761 815.097 158.163 823.021 150.239L843.272 129.988C843.272 129.988 840.044 126.173 843.859 122.358C845.62 120.597 847.968 120.01 847.968 120.01L863.522 135.565ZM859.707 157.576L863.464 154.289C870.742 147.95 866.164 138.206 866.164 138.206L873.794 145.837C878.197 150.239 879.077 149.945 880.838 151.706C883.186 154.054 882.775 155.991 880.544 157.283L869.685 164.033C866.809 165.852 865.283 165.5 863.816 164.033C862.055 162.272 859.707 157.576 859.707 157.576ZM848.848 152.587L854.718 158.456C856.772 160.511 856.772 162.272 854.718 164.326C851.196 167.848 846.5 169.022 846.5 169.022L844.739 166.674L848.848 152.587ZM842.391 179.587L852.076 175.772C855.892 179.587 858.239 183.109 854.718 185.457L844.152 192.501C840.63 194.849 838.869 194.262 837.109 192.501C835.406 190.798 835.054 189.272 829.771 183.99L825.076 179.294C825.076 179.294 834.409 182.757 842.391 179.587Z" fill="white"/>
</svg>
